<svg xmlns="http://www.w3.org/2000/svg" fill="none" viewBox="0 0 24 24">
  <defs>
    <linearGradient id="a" x1="16" x2="7.5" y1="17" y2="9" gradientUnits="userSpaceOnUse">
      <stop offset="0" stop-color="#3D3BFF">
        <animate attributeName="stop-color" dur="4s" repeatCount="indefinite" values="#3D3BFF;#E9E9FD;#3D3BFF;"/>
      </stop>
      <stop offset="1" stop-color="#E9E9FD">
        <animate attributeName="stop-color" dur="4s" repeatCount="indefinite" values="#E9E9FD;#3D3BFF;#E9E9FD;"/>
      </stop>
    </linearGradient>
  </defs>
  <path fill="url(#a)" d="M9.6 19.859c-.607 2.346.305 2.832 1.937 1.12l6.506-7.295c1.585-1.856 1.188-3.348-1.095-3.72l-3.085-.62a.342.342 0 0 1-.281-.415l1.267-4.803c.61-2.361-.406-2.789-1.93-1.116-2.188 2.367-3.846 3.925-4.984 5.134a136.99 136.99 0 0 1-1.915 1.974c-1.93 2.053-.914 3.542 1.317 3.915l3.159.543a.343.343 0 0 1 .282.416L9.601 19.86Z"/>
</svg>