<svg width="160" height="44" viewBox="0 0 160 44" fill="none" xmlns="http://www.w3.org/2000/svg">
<g clip-path="url(#clip0_122_836)">
<path d="M24.8623 42.806L1.13786 23.6771C0.448013 23.121 -0.0585066 21.7962 0.00544748 20.7175L1.16601 1.19059C1.22997 0.111898 1.84137 -0.311302 2.53036 0.244881L26.2547 19.3736C26.9446 19.9299 27.4511 21.2547 27.3872 22.3333L26.2266 41.8603C26.1626 42.939 25.5513 43.3621 24.8623 42.806Z" fill="url(#paint0_linear_122_836)"/>
<path d="M37.4824 42.806L13.758 23.6771C13.0682 23.121 12.5616 21.7962 12.6256 20.7175L13.7862 1.19059C13.85 0.111898 14.4614 -0.311302 15.1505 0.244881L38.8749 19.3736C39.5647 19.9299 40.0713 21.2547 40.0073 22.3333L38.8467 41.8603C38.7828 42.939 38.1714 43.3621 37.4824 42.806Z" fill="url(#paint1_linear_122_836)"/>
<path d="M52.2468 42.806L28.5224 23.6771C27.8325 23.121 27.326 21.7962 27.39 20.7175L28.5506 1.19059C28.6145 0.111898 29.2258 -0.311302 29.9149 0.244881L53.6393 19.3736C54.3291 19.9299 54.8357 21.2547 54.7717 22.3333L53.6111 41.8603C53.5472 42.939 52.9357 43.3621 52.2468 42.806Z" fill="url(#paint2_linear_122_836)"/>
<path d="M83.6775 30.8068H79.5194L76.2974 18.0331L73.1032 30.8068H68.945L63.6853 12.2041H68.0638L71.2856 25.6471L74.7829 12.2041H77.8396L81.3093 25.6471L84.5036 12.2041H88.9096L83.6775 30.8068Z" fill="black"/>
<path d="M103.751 30.8068H90.7537V12.2041H103.751V15.6904H94.664V19.6228H103.559V23.1091H94.664V27.3205H103.751V30.8068Z" fill="black"/>
<path d="M110.719 30.8068H106.808V12.2041H115.4C117.328 12.2041 118.833 12.7805 119.916 13.9333C121.017 15.0675 121.568 16.4899 121.568 18.2004C121.568 19.8924 121.017 21.3149 119.916 22.4676C118.814 23.6204 117.31 24.1968 115.4 24.1968H110.719V30.8068ZM114.877 20.7106C115.666 20.7106 116.308 20.4875 116.804 20.0413C117.318 19.5764 117.576 18.9628 117.576 18.2004C117.576 17.4382 117.318 16.8339 116.804 16.3876C116.308 15.9227 115.666 15.6904 114.877 15.6904H110.719V20.7106H114.877Z" fill="black"/>
<path d="M138.862 30.8068H134.374L130.767 24.1968H127.903V30.8068H123.993V12.2041H132.584C134.475 12.2041 135.971 12.7619 137.072 13.8775C138.192 14.9932 138.752 16.4341 138.752 18.2004C138.752 19.7251 138.358 20.9616 137.568 21.9099C136.797 22.8581 135.852 23.4624 134.732 23.7227L138.862 30.8068ZM132.005 20.7106C132.814 20.7106 133.474 20.4875 133.988 20.0413C134.503 19.5764 134.759 18.9628 134.759 18.2004C134.759 17.4382 134.503 16.8339 133.988 16.3876C133.474 15.9227 132.814 15.6904 132.005 15.6904H127.903V20.7106H132.005Z" fill="black"/>
<path d="M150.389 31.1416C147.616 31.1416 145.322 30.2399 143.504 28.4363C141.706 26.6142 140.806 24.3086 140.806 21.5195C140.806 18.7306 141.706 16.4343 143.504 14.6307C145.322 12.8086 147.616 11.8975 150.389 11.8975C153.179 11.8975 155.474 12.7992 157.274 14.6028C159.091 16.4064 160 18.712 160 21.5195C160 24.3271 159.091 26.6327 157.274 28.4363C155.474 30.2399 153.179 31.1416 150.389 31.1416ZM146.341 25.8983C147.369 27.0511 148.718 27.6275 150.389 27.6275C152.059 27.6275 153.409 27.0511 154.437 25.8983C155.465 24.7455 155.979 23.2859 155.979 21.5195C155.979 19.7532 155.465 18.2936 154.437 17.1409C153.409 15.9881 152.059 15.4117 150.389 15.4117C148.718 15.4117 147.369 15.9881 146.341 17.1409C145.331 18.2936 144.827 19.7532 144.827 21.5195C144.827 23.2859 145.331 24.7455 146.341 25.8983Z" fill="black"/>
</g>
<defs>
<linearGradient id="paint0_linear_122_836" x1="-4.57963" y1="6.79041" x2="32.5696" y2="35.9898" gradientUnits="userSpaceOnUse">
<stop stop-color="#4B87F7"/>
<stop offset="0.21" stop-color="#3E77E1"/>
<stop offset="0.86" stop-color="#204EB0"/>
</linearGradient>
<linearGradient id="paint1_linear_122_836" x1="8.04048" y1="6.79041" x2="45.1898" y2="35.9898" gradientUnits="userSpaceOnUse">
<stop stop-color="#4B87F7"/>
<stop offset="0.21" stop-color="#3E77E1"/>
<stop offset="0.86" stop-color="#204EB0"/>
</linearGradient>
<linearGradient id="paint2_linear_122_836" x1="22.8049" y1="6.79041" x2="59.9542" y2="35.9898" gradientUnits="userSpaceOnUse">
<stop stop-color="#4B87F7"/>
<stop offset="0.21" stop-color="#3E77E1"/>
<stop offset="0.86" stop-color="#204EB0"/>
</linearGradient>
<clipPath id="clip0_122_836">
<rect width="160" height="44" fill="white"/>
</clipPath>
</defs>
</svg>
