<svg width="123" height="33" viewBox="0 0 123 33" fill="none" xmlns="http://www.w3.org/2000/svg">
<path d="M19.1129 32.3467L0.874733 17.8919C0.344409 17.4716 -0.0449769 16.4705 0.00418776 15.6554L0.89637 0.899675C0.945535 0.0845567 1.41555 -0.235238 1.94522 0.185047L20.1833 14.6399C20.7137 15.0602 21.1031 16.0613 21.0539 16.8764L20.1617 31.6321C20.1125 32.4472 19.6425 32.767 19.1129 32.3467Z" fill="white"/>
<path d="M28.8149 32.3467L10.5768 17.8919C10.0464 17.4716 9.65705 16.4705 9.70621 15.6554L10.5984 0.899675C10.6476 0.0845567 11.1176 -0.235238 11.6472 0.185047L29.8854 14.6399C30.4157 15.0602 30.8051 16.0613 30.7559 16.8764L29.8637 31.6321C29.8146 32.4472 29.3446 32.767 28.8149 32.3467Z" fill="white"/>
<path d="M40.1645 32.3467L21.9264 17.8919C21.396 17.4716 21.0067 16.4705 21.0558 15.6554L21.948 0.899675C21.9972 0.0845567 22.4672 -0.235238 22.9969 0.185047L41.235 14.6399C41.7653 15.0602 42.1547 16.0613 42.1055 16.8764L41.2133 31.6321C41.1642 32.4472 40.6942 32.767 40.1645 32.3467Z" fill="white"/>
<path d="M64.327 23.4903H61.1304L58.6536 13.7947L56.1979 23.4903H53.0014L48.958 9.37031H52.3239L54.8008 19.5739L57.4893 9.37031H59.8391L62.5064 19.5739L64.962 9.37031H68.3491L64.327 23.4903Z" fill="white"/>
<path d="M79.7588 23.4903H69.7668V9.37031H79.7588V12.0165H72.7729V15.0014H79.6106V17.6475H72.7729V20.8441H79.7588V23.4903Z" fill="white"/>
<path d="M85.1148 23.4903H82.1087V9.37031H88.7136C90.1954 9.37031 91.3527 9.80781 92.1854 10.6828C93.0321 11.5437 93.4555 12.6233 93.4555 13.9217C93.4555 15.206 93.0321 16.2856 92.1854 17.1606C91.3386 18.0356 90.1813 18.4731 88.7136 18.4731H85.1148V23.4903ZM88.3114 15.827C88.9182 15.827 89.4122 15.6576 89.7932 15.3189C90.1884 14.9661 90.386 14.5004 90.386 13.9217C90.386 13.3431 90.1884 12.8844 89.7932 12.5457C89.4122 12.1929 88.9182 12.0165 88.3114 12.0165H85.1148V15.827H88.3114Z" fill="white"/>
<path d="M106.75 23.4903H103.3L100.527 18.4731H98.325V23.4903H95.3189V9.37031H101.924C103.377 9.37031 104.528 9.7937 105.374 10.6405C106.235 11.4873 106.666 12.581 106.666 13.9217C106.666 15.079 106.362 16.0175 105.755 16.7373C105.163 17.457 104.436 17.9157 103.575 18.1133L106.75 23.4903ZM101.479 15.827C102.1 15.827 102.608 15.6576 103.003 15.3189C103.399 14.9661 103.596 14.5004 103.596 13.9217C103.596 13.3431 103.399 12.8844 103.003 12.5457C102.608 12.1929 102.1 12.0165 101.479 12.0165H98.325V15.827H101.479Z" fill="white"/>
<path d="M115.611 23.7443C113.48 23.7443 111.716 23.0598 110.319 21.6909C108.936 20.3078 108.244 18.5578 108.244 16.4409C108.244 14.3239 108.936 12.581 110.319 11.212C111.716 9.82898 113.48 9.13745 115.611 9.13745C117.757 9.13745 119.521 9.82193 120.904 11.1909C122.301 12.5598 123 14.3098 123 16.4409C123 18.5719 122.301 20.3219 120.904 21.6909C119.521 23.0598 117.757 23.7443 115.611 23.7443ZM112.5 19.7645C113.29 20.6395 114.327 21.077 115.611 21.077C116.896 21.077 117.933 20.6395 118.723 19.7645C119.514 18.8895 119.909 17.7816 119.909 16.4409C119.909 15.1002 119.514 13.9923 118.723 13.1173C117.933 12.2423 116.896 11.8048 115.611 11.8048C114.327 11.8048 113.29 12.2423 112.5 13.1173C111.723 13.9923 111.335 15.1002 111.335 16.4409C111.335 17.7816 111.723 18.8895 112.5 19.7645Z" fill="white"/>
</svg>
