<svg width="56" height="57" viewBox="0 0 56 57" fill="none" xmlns="http://www.w3.org/2000/svg">
<circle cx="27.96" cy="28.7203" r="27.96" fill="#007AFF"/>
<g clip-path="url(#clip0_2_687)">
<path d="M12 18.4257C12 18.6808 12.0921 18.9008 12.2764 19.0859C12.4607 19.271 12.6785 19.3636 12.9298 19.3636H17.1768L19.1872 32.9126C19.3212 33.7929 19.6311 34.488 20.117 34.9981C20.6028 35.5081 21.3023 35.7632 22.2153 35.7632H36.8786C37.1215 35.7632 37.3351 35.6747 37.5195 35.4978C37.7037 35.321 37.7958 35.101 37.7958 34.8377C37.7958 34.5745 37.7037 34.3544 37.5195 34.1775C37.3351 34.0006 37.1215 33.9121 36.8786 33.9121H22.4289C22.0771 33.9121 21.7902 33.799 21.5682 33.5729C21.3462 33.3466 21.2101 33.0443 21.1599 32.6659L20.9588 31.3702H36.9038C37.8252 31.3702 38.5289 31.1131 39.0147 30.599C39.5005 30.0848 39.8105 29.3835 39.9446 28.495L40.9497 21.9673C40.9664 21.885 40.979 21.8007 40.9874 21.7143C40.9958 21.6279 41 21.5559 41 21.4983C41 21.2022 40.8953 20.9616 40.6858 20.7765C40.4764 20.5914 40.2 20.4988 39.8566 20.4988H19.3505L19.0992 18.9317C19.0322 18.4545 18.8835 18.0967 18.6532 17.8581C18.4228 17.6195 17.9851 17.5002 17.3401 17.5002H12.9298C12.6785 17.5002 12.4607 17.5928 12.2764 17.7779C12.0921 17.963 12 18.1789 12 18.4257ZM21.1599 39.7612C21.1599 40.1314 21.252 40.4687 21.4363 40.7731C21.6206 41.0774 21.8656 41.3181 22.1713 41.495C22.4771 41.6719 22.8226 41.7603 23.208 41.7603C23.7692 41.7603 24.2487 41.567 24.6466 41.1803C25.0446 40.7937 25.2435 40.3206 25.2435 39.7612C25.2435 39.2018 25.0446 38.7288 24.6466 38.3422C24.2487 37.9555 23.7692 37.7622 23.208 37.7622C22.8226 37.7622 22.4771 37.8506 22.1713 38.0275C21.8656 38.2044 21.6206 38.445 21.4363 38.7494C21.252 39.0538 21.1599 39.3911 21.1599 39.7612ZM32.9081 39.7612C32.9081 40.3206 33.1092 40.7937 33.5113 41.1803C33.9133 41.567 34.395 41.7603 34.9562 41.7603C35.5258 41.7603 36.0096 41.567 36.4074 41.1803C36.8053 40.7937 37.0043 40.3206 37.0043 39.7612C37.0043 39.2018 36.8053 38.7288 36.4074 38.3422C36.0096 37.9555 35.5258 37.7622 34.9562 37.7622C34.5792 37.7622 34.2358 37.8506 33.9259 38.0275C33.6159 38.2044 33.3688 38.445 33.1845 38.7494C33.0002 39.0538 32.9081 39.3911 32.9081 39.7612Z" fill="white"/>
</g>
<defs>
<clipPath id="clip0_2_687">
<rect width="29" height="26" fill="white" transform="translate(12 15.7603)"/>
</clipPath>
</defs>
</svg>
