<svg width="56" height="57" viewBox="0 0 56 57" fill="none" xmlns="http://www.w3.org/2000/svg">
<circle cx="27.96" cy="28.8001" r="27.96" fill="#FF2D55"/>
<g clip-path="url(#clip0_2_684)">
<path d="M27.3229 43.2788C29.2245 43.2788 30.9508 42.9786 32.5018 42.3782C34.0529 41.7777 35.3902 40.924 36.5138 39.817C37.6374 38.7101 38.4994 37.3825 39.0997 35.8345C39.6999 34.2865 40 32.5697 40 30.684C40 28.5825 39.7215 26.6827 39.1645 24.9846C38.6075 23.2866 37.8464 21.7785 36.8812 20.4603C35.916 19.1422 34.8091 18.0024 33.5607 17.0407C32.3122 16.0791 30.9941 15.2864 29.6063 14.6625C28.2185 14.0386 26.8212 13.5789 25.4142 13.2834C24.0072 12.9878 22.6699 12.8401 21.4022 12.8401C20.7203 12.8401 20.1801 12.955 19.7815 13.1849C19.383 13.4147 19.1837 13.7548 19.1837 14.2051C19.1837 14.3834 19.2221 14.5616 19.2989 14.7399C19.3758 14.9181 19.491 15.0917 19.6447 15.2606C20.2113 15.9267 20.7563 16.635 21.2797 17.3855C21.8031 18.136 22.2353 18.9288 22.5762 19.7638C22.9172 20.5987 23.0925 21.4806 23.102 22.4094C23.102 22.7284 23.0708 23.0403 23.0084 23.3452C22.946 23.6501 22.7995 23.9996 22.569 24.3936L23.2893 24.2529C23.0684 23.5586 22.7491 22.9465 22.3313 22.4164C21.9136 21.8864 21.443 21.4712 20.9196 21.171C20.3962 20.8708 19.88 20.7207 19.371 20.7207C19.0732 20.7207 18.8331 20.8192 18.6507 21.0162C18.4682 21.2132 18.377 21.4665 18.377 21.7761C18.377 21.9544 18.3938 22.2288 18.4274 22.5994C18.461 22.9699 18.4778 23.31 18.4778 23.6196C18.4778 24.2482 18.3962 24.8392 18.2329 25.3928C18.0696 25.9463 17.8632 26.5045 17.6134 27.0674C17.3637 27.6303 17.1164 28.2284 16.8715 28.8617C16.6267 29.4949 16.4202 30.2055 16.2521 30.9937C16.084 31.7817 16 32.6823 16 33.6956C16 35.6188 16.4706 37.2981 17.4118 38.7335C18.3529 40.1689 19.6711 41.2853 21.3662 42.0828C23.0612 42.8801 25.0468 43.2788 27.3229 43.2788ZM27.6543 39.3245C26.3097 39.3245 25.2269 38.961 24.4058 38.2339C23.5846 37.5068 23.1741 36.5522 23.1741 35.3702C23.1741 34.7509 23.2677 34.2185 23.455 33.773C23.6423 33.3273 23.8608 32.9239 24.1105 32.5626C24.3602 32.2014 24.5907 31.8543 24.8019 31.5214C25.0132 31.1883 25.1477 30.8201 25.2053 30.4167C25.2149 30.351 25.2413 30.3111 25.2845 30.2971C25.3278 30.2829 25.3734 30.2947 25.4214 30.3322C25.7575 30.623 26.0384 30.9443 26.2641 31.2961C26.4898 31.6479 26.6939 32.0256 26.8764 32.4291C27.2605 31.9224 27.5342 31.1742 27.6975 30.1844C27.8608 29.1947 27.88 28.1229 27.7551 26.9689C27.7455 26.9032 27.7599 26.8539 27.7983 26.8211C27.8368 26.7883 27.8896 26.7859 27.9568 26.8141C29.0132 27.3019 29.8968 27.9399 30.6075 28.7279C31.3182 29.516 31.8536 30.3744 32.2137 31.3032C32.5738 32.232 32.7539 33.1561 32.7539 34.0754C32.7539 35.0042 32.5667 35.8673 32.1922 36.6648C31.8176 37.4623 31.2533 38.1049 30.4994 38.5928C29.7455 39.0806 28.7971 39.3245 27.6543 39.3245Z" fill="white"/>
</g>
<defs>
<clipPath id="clip0_2_684">
<rect width="24" height="33" fill="white" transform="translate(16 12.8401)"/>
</clipPath>
</defs>
</svg>
