<svg width="56" height="57" viewBox="0 0 56 57" fill="none" xmlns="http://www.w3.org/2000/svg">
<circle cx="27.96" cy="28.6402" r="27.96" fill="#5856D6"/>
<g clip-path="url(#clip0_2_688)">
<path d="M28 40.6802C28.1397 40.6802 28.2989 40.6443 28.4779 40.5726C28.6568 40.5009 28.8161 40.4229 28.9558 40.3385C31.417 38.8204 33.5488 37.2284 35.351 35.5626C37.1533 33.8968 38.5454 32.1847 39.5272 30.4261C40.5091 28.6675 41 26.89 41 25.0934C41 23.9717 40.8146 22.9448 40.4437 22.0128C40.0728 21.0808 39.5578 20.2732 38.8988 19.59C38.2398 18.9068 37.4674 18.3797 36.5816 18.0086C35.6957 17.6375 34.7379 17.4519 33.708 17.4519C32.4337 17.4519 31.3122 17.7661 30.3434 18.3944C29.3746 19.0228 28.5935 19.8599 28 20.9058C27.4153 19.8684 26.6385 19.0333 25.6697 18.4008C24.7009 17.7682 23.575 17.4519 22.2921 17.4519C21.2622 17.4519 20.3065 17.6375 19.425 18.0086C18.5435 18.3797 17.7711 18.9068 17.1078 19.59C16.4444 20.2732 15.9273 21.0808 15.5564 22.0128C15.1855 22.9448 15 23.9717 15 25.0934C15 26.89 15.4909 28.6675 16.4728 30.4261C17.4547 32.1847 18.849 33.8968 20.6556 35.5626C22.4622 37.2284 24.5962 38.8204 27.0574 40.3385C27.1971 40.4229 27.3563 40.5009 27.5353 40.5726C27.7142 40.6443 27.8691 40.6802 28 40.6802Z" fill="white"/>
</g>
<defs>
<clipPath id="clip0_2_688">
<rect width="26" height="24" fill="white" transform="translate(15 16.6802)"/>
</clipPath>
</defs>
</svg>
