<svg width="18" height="18" viewBox="0 0 18 18" fill="none" xmlns="http://www.w3.org/2000/svg">
<g clip-path="url(#clip0_11_2232)">
<path d="M9.00002 0.597168C9.36895 0.597168 9.66801 0.896239 9.66801 1.26516V8.61309L17.0159 8.61309C17.3849 8.61309 17.6839 8.91215 17.6839 9.28109C17.6839 9.65002 17.3849 9.94908 17.0159 9.94908L9.66801 9.94908L9.66801 17.297C9.66801 17.6659 9.36895 17.965 9.00002 17.965C8.63109 17.965 8.33203 17.6659 8.33203 17.297L8.33203 9.94908H0.984095C0.615172 9.94908 0.316101 9.65002 0.316101 9.28109C0.316101 8.91215 0.615172 8.61309 0.984095 8.61309H8.33203V1.26516C8.33203 0.896239 8.63109 0.597168 9.00002 0.597168Z" fill="#007AFF"/>
</g>
<defs>
<clipPath id="clip0_11_2232">
<rect width="17.3678" height="17.3678" fill="white" transform="translate(0.316101 0.597168)"/>
</clipPath>
</defs>
</svg>
