<svg width="20" height="20" viewBox="0 0 20 20" fill="none" xmlns="http://www.w3.org/2000/svg">
<path d="M10 1.25C5.85775 1.25 2.5 4.60775 2.5 8.75C2.5 10.8204 3.33888 12.695 4.69563 14.0521C6.05275 15.41 9.25 17.375 9.4375 19.4375C9.46561 19.7467 9.6895 20 10 20C10.3105 20 10.5344 19.7467 10.5625 19.4375C10.75 17.375 13.9472 15.41 15.3044 14.0521C16.6611 12.695 17.5 10.8204 17.5 8.75C17.5 4.60775 14.1423 1.25 10 1.25Z" fill="#FF4433"/>
<path d="M10 11.375C11.4497 11.375 12.625 10.1997 12.625 8.75C12.625 7.30025 11.4497 6.125 10 6.125C8.55026 6.125 7.375 7.30025 7.375 8.75C7.375 10.1997 8.55026 11.375 10 11.375Z" fill="white"/>
</svg>
