<svg width="56" height="56" viewBox="0 0 56 56" fill="none" xmlns="http://www.w3.org/2000/svg">
<circle cx="27.96" cy="27.96" r="27.96" fill="#34C759"/>
<g clip-path="url(#clip0_2_686)">
<path d="M21.8685 47.9631H35.1316C36.5993 47.9631 37.7777 47.5244 38.6666 46.6472C39.5555 45.7698 40 44.6134 40 43.1779V13.7853C40 12.3497 39.5555 11.1932 38.6666 10.3159C37.7777 9.43865 36.5993 9 35.1316 9H21.8685C20.4127 9 19.2374 9.43865 18.3424 10.3159C17.4475 11.1932 17 12.3497 17 13.7853V43.1779C17 44.6134 17.4475 45.7698 18.3424 46.6472C19.2374 47.5244 20.4127 47.9631 21.8685 47.9631ZM22.2444 45C21.4807 45 20.896 44.8006 20.4903 44.4018C20.0846 44.003 19.8817 43.4355 19.8817 42.6994V14.2638C19.8817 13.5276 20.0846 12.9601 20.4903 12.5613C20.896 12.1626 21.4807 11.9632 22.2444 11.9632H24.5354C24.8218 11.9632 24.965 12.1043 24.965 12.3865V12.8098C24.965 13.1902 25.0784 13.5 25.3051 13.7393C25.5318 13.9785 25.8301 14.0982 26.2 14.0982H30.8179C31.1998 14.0982 31.5011 13.9785 31.7218 13.7393C31.9426 13.5 32.0529 13.1902 32.0529 12.8098V12.3865C32.0529 12.1043 32.1961 11.9632 32.4825 11.9632H34.7736C35.5253 11.9632 36.104 12.1626 36.5097 12.5613C36.9155 12.9601 37.1184 13.5276 37.1184 14.2638V42.6994C37.1184 43.4355 36.9155 44.003 36.5097 44.4018C36.104 44.8006 35.5253 45 34.7736 45H22.2444ZM24.7144 43.6564H32.3214C32.5601 43.6564 32.757 43.5766 32.9121 43.4171C33.0672 43.2576 33.1448 43.0491 33.1448 42.7914C33.1448 42.5337 33.0672 42.3281 32.9121 42.1747C32.757 42.0214 32.5601 41.9448 32.3214 41.9448H24.7144C24.4758 41.9448 24.2759 42.0214 24.1148 42.1747C23.9537 42.3281 23.8732 42.5337 23.8732 42.7914C23.8732 43.0491 23.9537 43.2576 24.1148 43.4171C24.2759 43.5766 24.4758 43.6564 24.7144 43.6564Z" fill="white"/>
</g>
<defs>
<clipPath id="clip0_2_686">
<rect width="23" height="39" fill="white" transform="translate(17 9)"/>
</clipPath>
</defs>
</svg>
