<svg width="56" height="57" viewBox="0 0 56 57" fill="none" xmlns="http://www.w3.org/2000/svg">
<circle cx="27.96" cy="28.8799" r="27.96" fill="#FFCC00"/>
<g clip-path="url(#clip0_2_685)">
<path d="M15.2002 32.4814C15.5547 32.4814 15.851 32.3589 16.089 32.1137C16.327 31.8687 16.446 31.5777 16.446 31.2407V26.5992C16.446 26.2622 16.327 25.9686 16.089 25.7184C15.851 25.4682 15.5547 25.3431 15.2002 25.3431C14.866 25.3431 14.5824 25.4682 14.3494 25.7184C14.1165 25.9686 14 26.2622 14 26.5992V31.2407C14 31.5777 14.1165 31.8687 14.3494 32.1137C14.5824 32.3589 14.866 32.4814 15.2002 32.4814ZM20.3201 38.7466C20.6746 38.7466 20.9684 38.6266 21.2013 38.3867C21.4343 38.1467 21.5508 37.8531 21.5508 37.5058V20.334C21.5508 19.9868 21.4343 19.6906 21.2013 19.4455C20.9684 19.2004 20.6746 19.0779 20.3201 19.0779C19.9758 19.0779 19.6871 19.2004 19.4542 19.4455C19.2212 19.6906 19.1047 19.9868 19.1047 20.334V37.5058C19.1047 37.8531 19.2212 38.1467 19.4542 38.3867C19.6871 38.6266 19.9758 38.7466 20.3201 38.7466ZM25.4249 44.9199C25.7794 44.9199 26.0756 44.7999 26.3137 44.5599C26.5517 44.3199 26.6707 44.0263 26.6707 43.6792V14.1607C26.6707 13.8135 26.5517 13.5199 26.3137 13.2799C26.0756 13.0399 25.7794 12.9199 25.4249 12.9199C25.0805 12.9199 24.7944 13.0399 24.5665 13.2799C24.3386 13.5199 24.2247 13.8135 24.2247 14.1607V43.6792C24.2247 44.0263 24.3386 44.3199 24.5665 44.5599C24.7944 44.7999 25.0805 44.9199 25.4249 44.9199ZM30.5449 36.8777C30.8892 36.8777 31.1804 36.7603 31.4184 36.5254C31.6564 36.2906 31.7754 35.9995 31.7754 35.6523V22.1875C31.7754 21.8403 31.6564 21.5467 31.4184 21.3067C31.1804 21.0667 30.8892 20.9467 30.5449 20.9467C30.2004 20.9467 29.9117 21.0667 29.6788 21.3067C29.4459 21.5467 29.3294 21.8403 29.3294 22.1875V35.6523C29.3294 35.9995 29.4459 36.2906 29.6788 36.5254C29.9117 36.7603 30.2004 36.8777 30.5449 36.8777ZM35.6648 41.5192C36.0091 41.5192 36.2977 41.3992 36.5307 41.1592C36.7636 40.9192 36.8801 40.6308 36.8801 40.2938V17.5461C36.8801 17.2091 36.7636 16.918 36.5307 16.6729C36.2977 16.4278 36.0091 16.3053 35.6648 16.3053C35.3103 16.3053 35.0165 16.4278 34.7836 16.6729C34.5507 16.918 34.4342 17.2091 34.4342 17.5461V40.2938C34.4342 40.6308 34.5507 40.9192 34.7836 41.1592C35.0165 41.3992 35.3103 41.5192 35.6648 41.5192ZM40.7694 33.7987C41.1139 33.7987 41.4051 33.6788 41.6431 33.4389C41.881 33.1989 42 32.9104 42 32.5733V25.2665C42 24.9295 41.881 24.6384 41.6431 24.3933C41.4051 24.1483 41.1139 24.0257 40.7694 24.0257C40.4149 24.0257 40.1237 24.1483 39.8959 24.3933C39.668 24.6384 39.5541 24.9295 39.5541 25.2665V32.5733C39.5541 32.9104 39.668 33.1989 39.8959 33.4389C40.1237 33.6788 40.4149 33.7987 40.7694 33.7987Z" fill="white"/>
</g>
<defs>
<clipPath id="clip0_2_685">
<rect width="28" height="32" fill="white" transform="translate(14 12.9199)"/>
</clipPath>
</defs>
</svg>
