<svg width="101" height="101" viewBox="0 0 101 101" fill="none" xmlns="http://www.w3.org/2000/svg">
<g style="mix-blend-mode:hard-light" filter="url(#filter0_di_11_1670)">
<circle cx="50.0383" cy="45.0383" r="40.0383" transform="rotate(-180 50.0383 45.0383)" fill="url(#paint0_linear_11_1670)"/>
<circle cx="50.0383" cy="45.0383" r="39.5383" transform="rotate(-180 50.0383 45.0383)" stroke="white"/>
</g>
<g filter="url(#filter1_i_11_1670)">
<circle cx="50.0383" cy="45.0382" r="34.3476" fill="url(#paint1_linear_11_1670)"/>
</g>
<circle cx="50.0383" cy="45.0382" r="33.8476" stroke="white"/>
<path d="M37.7706 57.2181V47.349H48.9973V61.0941H41.7992C40.5353 61.0941 39.5479 60.7661 38.837 60.1101C38.1261 59.4542 37.7706 58.4903 37.7706 57.2181ZM51.4856 61.0941V47.349H62.7123V57.2181C62.7123 58.4903 62.3569 59.4542 61.6458 60.1101C60.9348 60.7661 59.9474 61.0941 58.6835 61.0941H51.4856ZM35.6082 43.3834V39.6862C35.6082 38.8712 35.8353 38.2848 36.2895 37.927C36.7437 37.5692 37.3658 37.3903 38.1557 37.3903H41.7103C40.7822 36.5356 40.3181 35.4324 40.3181 34.0808C40.3181 32.5899 40.8217 31.3675 41.8288 30.4134C42.836 29.4592 44.0702 28.9822 45.5315 28.9822C46.6177 28.9822 47.5755 29.2654 48.4049 29.832C49.2343 30.3985 49.8465 31.2085 50.2414 32.2619C50.6363 31.2085 51.2485 30.3985 52.078 29.832C52.9075 29.2654 53.8653 28.9822 54.9514 28.9822C56.4126 28.9822 57.6469 29.4592 58.6541 30.4134C59.6612 31.3675 60.1647 32.5899 60.1647 34.0808C60.1647 35.4324 59.7006 36.5356 58.7724 37.3903H62.2974C63.1467 37.3903 63.7886 37.5692 64.2229 37.927C64.6575 38.2848 64.8748 38.8712 64.8748 39.6862V43.3834C64.8748 44.2182 64.6575 44.8145 64.2229 45.1723C63.7886 45.5301 63.1467 45.709 62.2974 45.709H51.4856V37.3903H53.8552C55.0598 37.3903 55.9979 37.0723 56.6694 36.4362C57.3408 35.8001 57.6765 35.0448 57.6765 34.1702C57.6765 33.3353 57.4001 32.6794 56.8472 32.2023C56.2941 31.7253 55.6127 31.4868 54.8031 31.4868C53.8553 31.4868 53.0654 31.8197 52.4335 32.4856C51.8015 33.1515 51.4856 34.0509 51.4856 35.184V37.3903H48.9973V35.184C48.9973 34.0509 48.6813 33.1515 48.0494 32.4856C47.4175 31.8197 46.6276 31.4868 45.6797 31.4868C44.8503 31.4868 44.164 31.7253 43.6209 32.2023C43.0779 32.6794 42.8063 33.3353 42.8063 34.1702C42.8063 35.0448 43.1421 35.8001 43.8135 36.4362C44.4849 37.0723 45.4229 37.3903 46.6276 37.3903H48.9973V45.709H38.1557C37.346 45.709 36.719 45.5301 36.2747 45.1723C35.8304 44.8145 35.6082 44.2182 35.6082 43.3834Z" fill="white"/>
<defs>
<filter id="filter0_di_11_1670" x="0" y="0" width="100.077" height="100.077" filterUnits="userSpaceOnUse" color-interpolation-filters="sRGB">
<feFlood flood-opacity="0" result="BackgroundImageFix"/>
<feColorMatrix in="SourceAlpha" type="matrix" values="0 0 0 0 0 0 0 0 0 0 0 0 0 0 0 0 0 0 127 0" result="hardAlpha"/>
<feOffset dy="5"/>
<feGaussianBlur stdDeviation="5"/>
<feComposite in2="hardAlpha" operator="out"/>
<feColorMatrix type="matrix" values="0 0 0 0 0 0 0 0 0 0 0 0 0 0 0 0 0 0 0.5 0"/>
<feBlend mode="normal" in2="BackgroundImageFix" result="effect1_dropShadow_11_1670"/>
<feBlend mode="normal" in="SourceGraphic" in2="effect1_dropShadow_11_1670" result="shape"/>
<feColorMatrix in="SourceAlpha" type="matrix" values="0 0 0 0 0 0 0 0 0 0 0 0 0 0 0 0 0 0 127 0" result="hardAlpha"/>
<feMorphology radius="2" operator="erode" in="SourceAlpha" result="effect2_innerShadow_11_1670"/>
<feOffset/>
<feGaussianBlur stdDeviation="2"/>
<feComposite in2="hardAlpha" operator="arithmetic" k2="-1" k3="1"/>
<feColorMatrix type="matrix" values="0 0 0 0 1 0 0 0 0 1 0 0 0 0 1 0 0 0 1 0"/>
<feBlend mode="normal" in2="shape" result="effect2_innerShadow_11_1670"/>
</filter>
<filter id="filter1_i_11_1670" x="15.6907" y="10.6907" width="68.6951" height="68.6951" filterUnits="userSpaceOnUse" color-interpolation-filters="sRGB">
<feFlood flood-opacity="0" result="BackgroundImageFix"/>
<feBlend mode="normal" in="SourceGraphic" in2="BackgroundImageFix" result="shape"/>
<feColorMatrix in="SourceAlpha" type="matrix" values="0 0 0 0 0 0 0 0 0 0 0 0 0 0 0 0 0 0 127 0" result="hardAlpha"/>
<feMorphology radius="2" operator="erode" in="SourceAlpha" result="effect1_innerShadow_11_1670"/>
<feOffset/>
<feGaussianBlur stdDeviation="1"/>
<feComposite in2="hardAlpha" operator="arithmetic" k2="-1" k3="1"/>
<feColorMatrix type="matrix" values="0 0 0 0 1 0 0 0 0 1 0 0 0 0 1 0 0 0 1 0"/>
<feBlend mode="normal" in2="shape" result="effect1_innerShadow_11_1670"/>
</filter>
<linearGradient id="paint0_linear_11_1670" x1="17.3443" y1="23.4792" x2="75.8618" y2="68.4926" gradientUnits="userSpaceOnUse">
<stop stop-color="#ED826E"/>
<stop offset="1" stop-color="#E14E38"/>
</linearGradient>
<linearGradient id="paint1_linear_11_1670" x1="21.9912" y1="26.5434" x2="72.1915" y2="65.159" gradientUnits="userSpaceOnUse">
<stop stop-color="#ED826E"/>
<stop offset="1" stop-color="#E14E38"/>
</linearGradient>
</defs>
</svg>
