<svg width="101" height="101" viewBox="0 0 101 101" fill="none" xmlns="http://www.w3.org/2000/svg">
<g style="mix-blend-mode:hard-light" filter="url(#filter0_di_11_1649)">
<circle cx="50.0383" cy="45.0383" r="40.0383" transform="rotate(-180 50.0383 45.0383)" fill="url(#paint0_linear_11_1649)"/>
<circle cx="50.0383" cy="45.0383" r="39.5383" transform="rotate(-180 50.0383 45.0383)" stroke="white"/>
</g>
<g filter="url(#filter1_i_11_1649)">
<circle cx="50.0383" cy="45.0382" r="34.3476" fill="url(#paint1_linear_11_1649)"/>
</g>
<circle cx="50.0383" cy="45.0382" r="33.8476" stroke="white"/>
<g clip-path="url(#clip0_11_1649)">
<path d="M48.9651 56.2164H63.9479C64.8864 56.2164 65.5464 56.0825 65.9281 55.8148C66.3099 55.5471 66.5008 55.1495 66.5008 54.622C66.5008 53.8547 66.2681 53.0435 65.8029 52.1884C65.3377 51.3333 64.6697 50.5321 63.7989 49.7849C62.928 49.0376 61.8743 48.4302 60.6377 47.9627C59.401 47.4951 58.0073 47.2614 56.4565 47.2614C54.9137 47.2614 53.524 47.4951 52.2874 47.9627C51.0508 48.4302 49.995 49.0376 49.1203 49.7849C48.2455 50.5321 47.5775 51.3333 47.1162 52.1884C46.6549 53.0435 46.4242 53.8547 46.4242 54.622C46.4242 55.1495 46.6131 55.5471 46.9909 55.8148C47.3687 56.0825 48.0267 56.2164 48.9651 56.2164ZM56.4685 45.1156C57.3194 45.1156 58.1067 44.8818 58.8304 44.4143C59.5541 43.9467 60.1347 43.3134 60.5721 42.5142C61.0095 41.715 61.2282 40.8159 61.2282 39.8169C61.2282 38.8339 61.0095 37.9528 60.5721 37.1736C60.1347 36.3944 59.5541 35.781 58.8304 35.3334C58.1067 34.8859 57.3194 34.6621 56.4685 34.6621C55.6176 34.6621 54.8302 34.8899 54.1065 35.3454C53.3828 35.801 52.8003 36.4203 52.3589 37.2035C51.9176 37.9868 51.697 38.8659 51.697 39.8409C51.697 40.8319 51.9156 41.725 52.353 42.5202C52.7904 43.3154 53.3709 43.9467 54.0946 44.4143C54.8183 44.8818 55.6096 45.1156 56.4685 45.1156ZM36.0819 56.2164H45.136C44.8258 55.7608 44.6787 55.2134 44.6946 54.5741C44.7105 53.9347 44.8576 53.2633 45.136 52.56C45.4143 51.8568 45.798 51.1755 46.2871 50.5161C46.7761 49.8568 47.3428 49.2753 47.9869 48.7719C47.3189 48.3243 46.5535 47.9547 45.6907 47.663C44.8278 47.3713 43.8397 47.2254 42.7263 47.2254C41.3823 47.2254 40.1715 47.4472 39.0939 47.8907C38.0163 48.3343 37.0978 48.9177 36.3383 49.641C35.5789 50.3643 34.9963 51.1535 34.5907 52.0086C34.1852 52.8637 33.9824 53.7069 33.9824 54.5381C33.9824 55.0736 34.1434 55.4871 34.4655 55.7788C34.7876 56.0706 35.3264 56.2164 36.0819 56.2164ZM42.7263 45.3913C43.4738 45.3913 44.1618 45.1875 44.79 44.7799C45.4183 44.3723 45.9233 43.8189 46.305 43.1196C46.6867 42.4203 46.8775 41.6391 46.8775 40.7759C46.8775 39.9128 46.6867 39.1436 46.305 38.4683C45.9233 37.793 45.4163 37.2615 44.784 36.8739C44.1518 36.4863 43.4659 36.2925 42.7263 36.2925C41.9947 36.2925 41.3127 36.4903 40.6805 36.8859C40.0482 37.2815 39.5373 37.8189 39.1476 38.4982C38.7579 39.1776 38.5671 39.9448 38.575 40.7999C38.575 41.6551 38.7659 42.4303 39.1476 43.1256C39.5293 43.8209 40.0363 44.3723 40.6685 44.7799C41.3008 45.1875 41.9867 45.3913 42.7263 45.3913Z" fill="white"/>
</g>
<defs>
<filter id="filter0_di_11_1649" x="0" y="0" width="100.077" height="100.077" filterUnits="userSpaceOnUse" color-interpolation-filters="sRGB">
<feFlood flood-opacity="0" result="BackgroundImageFix"/>
<feColorMatrix in="SourceAlpha" type="matrix" values="0 0 0 0 0 0 0 0 0 0 0 0 0 0 0 0 0 0 127 0" result="hardAlpha"/>
<feOffset dy="5"/>
<feGaussianBlur stdDeviation="5"/>
<feComposite in2="hardAlpha" operator="out"/>
<feColorMatrix type="matrix" values="0 0 0 0 0 0 0 0 0 0 0 0 0 0 0 0 0 0 0.5 0"/>
<feBlend mode="normal" in2="BackgroundImageFix" result="effect1_dropShadow_11_1649"/>
<feBlend mode="normal" in="SourceGraphic" in2="effect1_dropShadow_11_1649" result="shape"/>
<feColorMatrix in="SourceAlpha" type="matrix" values="0 0 0 0 0 0 0 0 0 0 0 0 0 0 0 0 0 0 127 0" result="hardAlpha"/>
<feMorphology radius="2" operator="erode" in="SourceAlpha" result="effect2_innerShadow_11_1649"/>
<feOffset/>
<feGaussianBlur stdDeviation="2"/>
<feComposite in2="hardAlpha" operator="arithmetic" k2="-1" k3="1"/>
<feColorMatrix type="matrix" values="0 0 0 0 1 0 0 0 0 1 0 0 0 0 1 0 0 0 1 0"/>
<feBlend mode="normal" in2="shape" result="effect2_innerShadow_11_1649"/>
</filter>
<filter id="filter1_i_11_1649" x="15.6907" y="10.6907" width="68.6951" height="68.6951" filterUnits="userSpaceOnUse" color-interpolation-filters="sRGB">
<feFlood flood-opacity="0" result="BackgroundImageFix"/>
<feBlend mode="normal" in="SourceGraphic" in2="BackgroundImageFix" result="shape"/>
<feColorMatrix in="SourceAlpha" type="matrix" values="0 0 0 0 0 0 0 0 0 0 0 0 0 0 0 0 0 0 127 0" result="hardAlpha"/>
<feMorphology radius="2" operator="erode" in="SourceAlpha" result="effect1_innerShadow_11_1649"/>
<feOffset/>
<feGaussianBlur stdDeviation="1"/>
<feComposite in2="hardAlpha" operator="arithmetic" k2="-1" k3="1"/>
<feColorMatrix type="matrix" values="0 0 0 0 1 0 0 0 0 1 0 0 0 0 1 0 0 0 1 0"/>
<feBlend mode="normal" in2="shape" result="effect1_innerShadow_11_1649"/>
</filter>
<linearGradient id="paint0_linear_11_1649" x1="17.3443" y1="23.4792" x2="75.8618" y2="68.4926" gradientUnits="userSpaceOnUse">
<stop stop-color="#9733EE"/>
<stop offset="1" stop-color="#DA22FF"/>
</linearGradient>
<linearGradient id="paint1_linear_11_1649" x1="21.9912" y1="26.5434" x2="72.1915" y2="65.159" gradientUnits="userSpaceOnUse">
<stop stop-color="#DA22FF"/>
<stop offset="1" stop-color="#9733EE"/>
</linearGradient>
<clipPath id="clip0_11_1649">
<rect width="32.5184" height="21.9499" fill="white" transform="translate(33.9824 34.2665)"/>
</clipPath>
</defs>
</svg>
