<svg width="101" height="101" viewBox="0 0 101 101" fill="none" xmlns="http://www.w3.org/2000/svg">
<g style="mix-blend-mode:hard-light" filter="url(#filter0_di_11_1687)">
<circle cx="50.0383" cy="45.0383" r="40.0383" transform="rotate(-180 50.0383 45.0383)" fill="url(#paint0_linear_11_1687)"/>
<circle cx="50.0383" cy="45.0383" r="39.5383" transform="rotate(-180 50.0383 45.0383)" stroke="white"/>
</g>
<g filter="url(#filter1_i_11_1687)">
<circle cx="50.0383" cy="45.0382" r="34.3476" fill="url(#paint1_linear_11_1687)"/>
</g>
<circle cx="50.0383" cy="45.0382" r="33.8476" stroke="white"/>
<g clip-path="url(#clip0_11_1687)">
<path d="M55.5094 59.335C56.6173 59.335 57.5067 59.0174 58.1776 58.382C58.8486 57.7468 59.1841 56.9094 59.1841 55.8699V34.5863C59.1841 33.5468 58.8486 32.7094 58.1776 32.0741C57.5067 31.4388 56.6173 31.1212 55.5094 31.1212H45.4851C44.3863 31.1212 43.4992 31.4388 42.8237 32.0741C42.1482 32.7094 41.8104 33.5468 41.8104 34.5863V45.7679C41.9906 45.7501 42.1707 45.7345 42.3508 45.7212C42.531 45.7079 42.7111 45.7012 42.8912 45.7012C43.0714 45.7012 43.2537 45.7079 43.4384 45.7212C43.623 45.7345 43.8054 45.7545 43.9855 45.7811V34.9328C43.9855 34.3997 44.1386 33.9888 44.4449 33.7C44.7511 33.4113 45.1924 33.2669 45.7688 33.2669H55.2393C55.8066 33.2669 56.2435 33.4113 56.5498 33.7C56.856 33.9888 57.0091 34.3997 57.0091 34.9328V55.5234C57.0091 56.0564 56.856 56.4674 56.5498 56.7561C56.2435 57.0449 55.8066 57.1893 55.2393 57.1893H51.0647C50.9296 57.598 50.7697 57.98 50.5851 58.3354C50.4004 58.6908 50.1955 59.024 49.9704 59.335H55.5094ZM46.4173 37.425H47.6872C48.0385 37.425 48.2141 37.2606 48.2141 36.9319V35.6525C48.2141 35.3237 48.0385 35.1594 47.6872 35.1594H46.4173C46.084 35.1594 45.9174 35.3237 45.9174 35.6525V36.9319C45.9174 37.2606 46.084 37.425 46.4173 37.425ZM49.8353 37.425H51.1188C51.47 37.425 51.6456 37.2606 51.6456 36.9319V35.6525C51.6456 35.3237 51.47 35.1594 51.1188 35.1594H49.8353C49.5111 35.1594 49.3489 35.3237 49.3489 35.6525V36.9319C49.3489 37.2606 49.5111 37.425 49.8353 37.425ZM53.2668 37.425H54.5368C54.888 37.425 55.0636 37.2606 55.0636 36.9319V35.6525C55.0636 35.3237 54.888 35.1594 54.5368 35.1594H53.2668C52.9425 35.1594 52.7804 35.3237 52.7804 35.6525V36.9319C52.7804 37.2606 52.9425 37.425 53.2668 37.425ZM46.4173 41.0367H47.6872C48.0385 41.0367 48.2141 40.8767 48.2141 40.5569V39.2642C48.2141 38.9354 48.0385 38.771 47.6872 38.771H46.4173C46.084 38.771 45.9174 38.9354 45.9174 39.2642V40.5569C45.9174 40.8767 46.084 41.0367 46.4173 41.0367ZM49.8353 41.0367H51.1188C51.47 41.0367 51.6456 40.8767 51.6456 40.5569V39.2642C51.6456 38.9354 51.47 38.771 51.1188 38.771H49.8353C49.5111 38.771 49.3489 38.9354 49.3489 39.2642V40.5569C49.3489 40.8767 49.5111 41.0367 49.8353 41.0367ZM53.2668 41.0367H54.5368C54.888 41.0367 55.0636 40.8767 55.0636 40.5569V39.2642C55.0636 38.9354 54.888 38.771 54.5368 38.771H53.2668C52.9425 38.771 52.7804 38.9354 52.7804 39.2642V40.5569C52.7804 40.8767 52.9425 41.0367 53.2668 41.0367Z" fill="white"/>
<path d="M47.6871 44.8349H46.4172C46.0839 44.8349 45.9173 44.675 45.9173 44.3551V43.0624C45.9173 42.7336 46.0839 42.5693 46.4172 42.5693H47.6871C48.0384 42.5693 48.214 42.7336 48.214 43.0624V44.3551C48.214 44.675 48.0384 44.8349 47.6871 44.8349Z" fill="white"/>
<path d="M51.1187 44.8349H49.8352C49.5109 44.8349 49.3488 44.675 49.3488 44.3551V43.0624C49.3488 42.7336 49.5109 42.5693 49.8352 42.5693H51.1187C51.4699 42.5693 51.6455 42.7336 51.6455 43.0624V44.3551C51.6455 44.675 51.4699 44.8349 51.1187 44.8349Z" fill="white"/>
<path d="M54.5366 44.8349H53.2667C52.9424 44.8349 52.7803 44.675 52.7803 44.3551V43.0624C52.7803 42.7336 52.9424 42.5693 53.2667 42.5693H54.5366C54.8878 42.5693 55.0634 42.7336 55.0634 43.0624V44.3551C55.0634 44.675 54.8878 44.8349 54.5366 44.8349Z" fill="white"/>
<path d="M42.8777 61.1131C43.8054 61.1131 44.6835 60.9354 45.5121 60.5801C46.3407 60.2247 47.0725 59.736 47.7075 59.1141C48.3425 58.4922 48.8401 57.7725 49.2003 56.955C49.5606 56.1376 49.7407 55.2669 49.7407 54.3429C49.7407 53.41 49.5629 52.5349 49.2071 51.7175C48.8513 50.9001 48.3582 50.1804 47.7278 49.5584C47.0973 48.9365 46.3678 48.45 45.5392 48.0991C44.7106 47.7481 43.8234 47.5726 42.8777 47.5726C41.941 47.5726 41.0584 47.7481 40.2298 48.0991C39.4012 48.45 38.6717 48.9387 38.0412 49.5651C37.4107 50.1915 36.9154 50.9112 36.5551 51.7241C36.1948 52.5371 36.0147 53.41 36.0147 54.3429C36.0147 55.2759 36.1948 56.151 36.5551 56.9684C36.9154 57.7858 37.4107 58.5055 38.0412 59.1273C38.6717 59.7493 39.4012 60.2358 40.2298 60.5868C41.0584 60.9377 41.941 61.1131 42.8777 61.1131Z" fill="white"/>
<path d="M42.8777 58.562C42.6255 58.562 42.4251 58.4865 42.2765 58.3353C42.1279 58.1843 42.0536 57.9888 42.0536 57.7489V55.1369H39.4057C39.1625 55.1369 38.9643 55.0636 38.8112 54.917C38.6581 54.7704 38.5816 54.5727 38.5816 54.3239C38.5816 54.0751 38.6581 53.8774 38.8112 53.7308C38.9643 53.5842 39.1625 53.511 39.4057 53.511H42.0536V50.8988C42.0536 50.6589 42.1279 50.4634 42.2765 50.3124C42.4251 50.1613 42.6255 50.0858 42.8777 50.0858C43.1299 50.0858 43.3303 50.1613 43.4789 50.3124C43.6275 50.4634 43.7018 50.6589 43.7018 50.8988V53.511H46.3497C46.5929 53.511 46.7911 53.5842 46.9442 53.7308C47.0973 53.8774 47.1739 54.0751 47.1739 54.3239C47.1739 54.5727 47.0973 54.7704 46.9442 54.917C46.7911 55.0636 46.5929 55.1369 46.3497 55.1369H43.7018V57.7489C43.7018 57.9888 43.6275 58.1843 43.4789 58.3353C43.3303 58.4865 43.1299 58.562 42.8777 58.562Z" fill="#B04FF5"/>
</g>
<defs>
<filter id="filter0_di_11_1687" x="0" y="0" width="100.077" height="100.077" filterUnits="userSpaceOnUse" color-interpolation-filters="sRGB">
<feFlood flood-opacity="0" result="BackgroundImageFix"/>
<feColorMatrix in="SourceAlpha" type="matrix" values="0 0 0 0 0 0 0 0 0 0 0 0 0 0 0 0 0 0 127 0" result="hardAlpha"/>
<feOffset dy="5"/>
<feGaussianBlur stdDeviation="5"/>
<feComposite in2="hardAlpha" operator="out"/>
<feColorMatrix type="matrix" values="0 0 0 0 0 0 0 0 0 0 0 0 0 0 0 0 0 0 0.5 0"/>
<feBlend mode="normal" in2="BackgroundImageFix" result="effect1_dropShadow_11_1687"/>
<feBlend mode="normal" in="SourceGraphic" in2="effect1_dropShadow_11_1687" result="shape"/>
<feColorMatrix in="SourceAlpha" type="matrix" values="0 0 0 0 0 0 0 0 0 0 0 0 0 0 0 0 0 0 127 0" result="hardAlpha"/>
<feMorphology radius="2" operator="erode" in="SourceAlpha" result="effect2_innerShadow_11_1687"/>
<feOffset/>
<feGaussianBlur stdDeviation="2"/>
<feComposite in2="hardAlpha" operator="arithmetic" k2="-1" k3="1"/>
<feColorMatrix type="matrix" values="0 0 0 0 1 0 0 0 0 1 0 0 0 0 1 0 0 0 1 0"/>
<feBlend mode="normal" in2="shape" result="effect2_innerShadow_11_1687"/>
</filter>
<filter id="filter1_i_11_1687" x="15.6907" y="10.6907" width="68.6951" height="68.6951" filterUnits="userSpaceOnUse" color-interpolation-filters="sRGB">
<feFlood flood-opacity="0" result="BackgroundImageFix"/>
<feBlend mode="normal" in="SourceGraphic" in2="BackgroundImageFix" result="shape"/>
<feColorMatrix in="SourceAlpha" type="matrix" values="0 0 0 0 0 0 0 0 0 0 0 0 0 0 0 0 0 0 127 0" result="hardAlpha"/>
<feMorphology radius="2" operator="erode" in="SourceAlpha" result="effect1_innerShadow_11_1687"/>
<feOffset/>
<feGaussianBlur stdDeviation="1"/>
<feComposite in2="hardAlpha" operator="arithmetic" k2="-1" k3="1"/>
<feColorMatrix type="matrix" values="0 0 0 0 1 0 0 0 0 1 0 0 0 0 1 0 0 0 1 0"/>
<feBlend mode="normal" in2="shape" result="effect1_innerShadow_11_1687"/>
</filter>
<linearGradient id="paint0_linear_11_1687" x1="21.3718" y1="22.5315" x2="70.1759" y2="59.7269" gradientUnits="userSpaceOnUse">
<stop stop-color="#536DEB"/>
<stop offset="1" stop-color="#F75371"/>
</linearGradient>
<linearGradient id="paint1_linear_11_1687" x1="25.4463" y1="25.7304" x2="67.3137" y2="57.6391" gradientUnits="userSpaceOnUse">
<stop stop-color="#496EF2"/>
<stop offset="1" stop-color="#F75371"/>
</linearGradient>
<clipPath id="clip0_11_1687">
<rect width="23.1694" height="31.7054" fill="white" transform="translate(36.0147 29.3887)"/>
</clipPath>
</defs>
</svg>
