<svg width="101" height="101" viewBox="0 0 101 101" fill="none" xmlns="http://www.w3.org/2000/svg">
<g style="mix-blend-mode:hard-light" filter="url(#filter0_di_11_1638)">
<circle cx="50.0383" cy="45.0382" r="40.0383" transform="rotate(-180 50.0383 45.0382)" fill="url(#paint0_linear_11_1638)"/>
<circle cx="50.0383" cy="45.0382" r="39.5383" transform="rotate(-180 50.0383 45.0382)" stroke="white"/>
</g>
<g filter="url(#filter1_i_11_1638)">
<circle cx="50.0383" cy="45.0382" r="34.3476" fill="url(#paint1_linear_11_1638)"/>
</g>
<circle cx="50.0383" cy="45.0382" r="33.8476" stroke="white"/>
<g clip-path="url(#clip0_11_1638)">
<path d="M37.9711 53.7092H62.512C63.5748 53.7092 64.3698 53.4552 64.897 52.9471C65.4242 52.4392 65.6878 51.6487 65.6878 50.5757V36.6032C65.6878 35.5384 65.4242 34.752 64.897 34.244C64.3698 33.7359 63.5748 33.4819 62.512 33.4819H37.9711C36.9166 33.4819 36.1237 33.7359 35.5924 34.244C35.061 34.752 34.7953 35.5384 34.7953 36.6032V50.5757C34.7953 51.6487 35.061 52.4392 35.5924 52.9471C36.1237 53.4552 36.9166 53.7092 37.9711 53.7092ZM44.026 57.8424H56.4571C56.729 57.8424 56.9638 57.7469 57.1615 57.556C57.3592 57.365 57.4581 57.1313 57.4581 56.8548C57.4581 56.5867 57.3592 56.355 57.1615 56.1599C56.9638 55.9648 56.729 55.8673 56.4571 55.8673H44.026C43.7542 55.8673 43.5194 55.9648 43.3217 56.1599C43.124 56.355 43.0251 56.5867 43.0251 56.8548C43.0251 57.1313 43.124 57.365 43.3217 57.556C43.5194 57.7469 43.7542 57.8424 44.026 57.8424ZM46.5468 49.1371C46.275 49.1371 46.0628 49.0497 45.9104 48.8749C45.758 48.7002 45.6818 48.4584 45.6818 48.1495V46.8693H41.3816C41.0027 46.8693 40.6999 46.7636 40.4734 46.5523C40.2468 46.341 40.1336 46.0646 40.1336 45.7231C40.1336 45.5444 40.1562 45.3757 40.2015 45.2171C40.2468 45.0587 40.3313 44.8859 40.4548 44.699C40.702 44.2926 40.9779 43.8597 41.2828 43.4005C41.5876 42.9413 41.9047 42.4658 42.2343 41.974C42.5638 41.4822 42.8953 40.9905 43.229 40.4987C43.5626 40.0069 43.886 39.5294 44.199 39.0661C44.4297 38.7084 44.685 38.4524 44.9651 38.298C45.2452 38.1435 45.5953 38.0663 46.0155 38.0663C46.4356 38.0663 46.7796 38.1801 47.0473 38.4077C47.315 38.6353 47.4489 38.936 47.4489 39.3099V45.333H48.3634C48.594 45.333 48.7814 45.4041 48.9256 45.5464C49.0697 45.6886 49.1418 45.8735 49.1418 46.1011C49.1418 46.3369 49.0697 46.5239 48.9256 46.662C48.7814 46.8002 48.594 46.8693 48.3634 46.8693H47.4489V48.1495C47.4489 48.4584 47.3706 48.7002 47.2141 48.8749C47.0576 49.0497 46.8352 49.1371 46.5468 49.1371ZM45.6818 45.333V39.5904H45.5953C45.34 39.9643 45.0805 40.3504 44.8169 40.7486C44.5532 41.1469 44.2855 41.5472 44.0137 41.9496C43.7418 42.3519 43.4802 42.7462 43.229 43.1323C42.9777 43.5184 42.7368 43.8923 42.5061 44.254C42.2754 44.6157 42.0695 44.951 41.8883 45.2598V45.333H45.6818ZM51.6378 49.0639C51.366 49.0639 51.1519 48.9765 50.9953 48.8017C50.8388 48.627 50.7606 48.3852 50.7606 48.0763V39.1392C50.7606 38.8304 50.8388 38.5885 50.9953 38.4138C51.1519 38.239 51.366 38.1516 51.6378 38.1516C51.9344 38.1516 52.159 38.237 52.3114 38.4077C52.4637 38.5784 52.5399 38.8222 52.5399 39.1392V43.2847H52.7006L57.4704 38.5174C57.6022 38.3792 57.7196 38.2837 57.8225 38.2309C57.9255 38.1781 58.047 38.1516 58.1871 38.1516C58.4095 38.1516 58.599 38.2207 58.7555 38.3589C58.912 38.4971 58.9903 38.6719 58.9903 38.8832C58.9903 39.0051 58.9677 39.1169 58.9224 39.2185C58.8771 39.3201 58.805 39.4156 58.7061 39.505L55.3698 42.8945L59.0027 47.5642C59.085 47.6699 59.1468 47.7796 59.188 47.8934C59.2292 48.0072 59.2498 48.1251 59.2498 48.247C59.2498 48.4827 59.1695 48.6778 59.0088 48.8323C58.8482 48.9867 58.6443 49.0639 58.3971 49.0639C58.2489 49.0639 58.1109 49.0314 57.9832 48.9664C57.8555 48.9013 57.734 48.7916 57.6187 48.6372L54.0723 44.004L52.5399 45.5768V48.0763C52.5399 48.3933 52.4637 48.6371 52.3114 48.8078C52.159 48.9785 51.9344 49.0639 51.6378 49.0639Z" fill="white"/>
</g>
<defs>
<filter id="filter0_di_11_1638" x="6.10352e-05" y="0" width="100.077" height="100.077" filterUnits="userSpaceOnUse" color-interpolation-filters="sRGB">
<feFlood flood-opacity="0" result="BackgroundImageFix"/>
<feColorMatrix in="SourceAlpha" type="matrix" values="0 0 0 0 0 0 0 0 0 0 0 0 0 0 0 0 0 0 127 0" result="hardAlpha"/>
<feOffset dy="5"/>
<feGaussianBlur stdDeviation="5"/>
<feComposite in2="hardAlpha" operator="out"/>
<feColorMatrix type="matrix" values="0 0 0 0 0 0 0 0 0 0 0 0 0 0 0 0 0 0 0.5 0"/>
<feBlend mode="normal" in2="BackgroundImageFix" result="effect1_dropShadow_11_1638"/>
<feBlend mode="normal" in="SourceGraphic" in2="effect1_dropShadow_11_1638" result="shape"/>
<feColorMatrix in="SourceAlpha" type="matrix" values="0 0 0 0 0 0 0 0 0 0 0 0 0 0 0 0 0 0 127 0" result="hardAlpha"/>
<feMorphology radius="2" operator="erode" in="SourceAlpha" result="effect2_innerShadow_11_1638"/>
<feOffset/>
<feGaussianBlur stdDeviation="2"/>
<feComposite in2="hardAlpha" operator="arithmetic" k2="-1" k3="1"/>
<feColorMatrix type="matrix" values="0 0 0 0 1 0 0 0 0 1 0 0 0 0 1 0 0 0 1 0"/>
<feBlend mode="normal" in2="shape" result="effect2_innerShadow_11_1638"/>
</filter>
<filter id="filter1_i_11_1638" x="15.6907" y="10.6907" width="68.6951" height="68.6951" filterUnits="userSpaceOnUse" color-interpolation-filters="sRGB">
<feFlood flood-opacity="0" result="BackgroundImageFix"/>
<feBlend mode="normal" in="SourceGraphic" in2="BackgroundImageFix" result="shape"/>
<feColorMatrix in="SourceAlpha" type="matrix" values="0 0 0 0 0 0 0 0 0 0 0 0 0 0 0 0 0 0 127 0" result="hardAlpha"/>
<feMorphology radius="2" operator="erode" in="SourceAlpha" result="effect1_innerShadow_11_1638"/>
<feOffset/>
<feGaussianBlur stdDeviation="1"/>
<feComposite in2="hardAlpha" operator="arithmetic" k2="-1" k3="1"/>
<feColorMatrix type="matrix" values="0 0 0 0 1 0 0 0 0 1 0 0 0 0 1 0 0 0 1 0"/>
<feBlend mode="normal" in2="shape" result="effect1_innerShadow_11_1638"/>
</filter>
<linearGradient id="paint0_linear_11_1638" x1="90.0766" y1="4.99997" x2="10" y2="85.0765" gradientUnits="userSpaceOnUse">
<stop stop-color="#76C38F"/>
<stop offset="0.48" stop-color="#60CF8C"/>
<stop offset="1" stop-color="#A7C12C"/>
</linearGradient>
<linearGradient id="paint1_linear_11_1638" x1="84.3859" y1="10.6907" x2="15.6907" y2="79.3858" gradientUnits="userSpaceOnUse">
<stop stop-color="#76C38F"/>
<stop offset="0.48" stop-color="#60CF8C"/>
<stop offset="1" stop-color="#A7C12C"/>
</linearGradient>
<clipPath id="clip0_11_1638">
<rect width="30.8925" height="25.2018" fill="white" transform="translate(34.7953 32.6406)"/>
</clipPath>
</defs>
</svg>
